<?xml version="1.0" standalone="no"?>
<!DOCTYPE svg PUBLIC "-//W3C//DTD SVG 20010904//EN"
 "http://www.w3.org/TR/2001/REC-SVG-20010904/DTD/svg10.dtd">
<svg version="1.0" xmlns="http://www.w3.org/2000/svg"
 width="1200.000000pt" height="462.000000pt" viewBox="0 0 1200.000000 462.000000"
 preserveAspectRatio="xMidYMid meet">

<g transform="translate(0.000000,462.000000) scale(0.100000,-0.100000)"
fill="#000000" stroke="none">
<path d="M618 4600 c-229 -39 -437 -195 -538 -405 -81 -170 -75 -15 -75 -1875
0 -1874 -6 -1725 82 -1903 38 -76 62 -108 137 -183 103 -102 199 -159 333
-197 l78 -22 1585 -3 c1010 -2 1625 1 1695 7 320 29 551 214 656 526 l24 70 3
1660 c3 1813 5 1734 -54 1878 -70 172 -228 331 -400 401 -143 58 -65 56 -1846
55 -898 -1 -1654 -5 -1680 -9z m2174 -1114 c366 -93 622 -402 644 -781 25
-412 -253 -788 -650 -882 l-79 -18 8 -317 7 -318 -671 0 -671 0 0 1170 0 1170
659 0 658 0 95 -24z"/>
<path d="M1720 2340 l0 -830 325 0 325 0 0 315 0 315 128 0 c207 0 322 41 433
152 113 112 164 263 147 433 -14 146 -128 310 -264 382 -113 60 -141 63 -641
63 l-453 0 0 -830z"/>
<path d="M10730 2250 l0 -770 115 0 115 0 0 770 0 770 -115 0 -115 0 0 -770z"/>
<path d="M6140 2235 l0 -755 120 0 120 0 0 285 0 285 188 0 c217 0 292 13 398
65 87 43 154 111 197 203 29 61 32 78 35 182 3 97 1 125 -17 178 -40 118 -111
201 -216 252 -114 56 -149 60 -502 60 l-323 0 0 -755z m694 515 c62 -32 103
-81 123 -149 29 -101 2 -205 -72 -269 -68 -60 -91 -65 -307 -70 l-198 -4 0
262 0 261 203 -3 c192 -3 204 -4 251 -28z"/>
<path d="M7697 2586 c-174 -50 -313 -190 -370 -371 -30 -99 -30 -262 0 -360
62 -195 222 -345 411 -384 227 -47 473 50 575 227 l18 31 -92 46 -92 47 -44
-51 c-167 -191 -477 -122 -548 122 -9 31 -14 61 -10 67 4 6 148 10 409 10
l403 0 6 54 c24 232 -114 467 -320 547 -73 28 -270 36 -346 15z m244 -191 c88
-30 161 -115 175 -202 l7 -43 -287 0 -286 0 0 23 c1 33 33 98 70 141 32 36 88
71 140 87 43 13 134 10 181 -6z"/>
<path d="M9881 2584 c-180 -48 -331 -207 -376 -395 -19 -82 -19 -226 0 -307
42 -177 170 -323 341 -388 92 -35 240 -44 334 -20 137 35 262 122 310 217 l20
39 -90 45 -91 46 -49 -54 c-68 -75 -130 -101 -235 -102 -66 0 -90 5 -136 26
-100 47 -179 154 -179 242 l0 37 404 0 404 0 6 23 c20 76 -8 247 -58 345 -57
113 -175 208 -305 246 -68 20 -226 20 -300 0z m275 -202 c73 -37 132 -117 147
-199 l7 -33 -291 0 -291 0 7 33 c21 95 95 177 192 213 55 21 177 13 229 -14z"/>
<path d="M11413 2579 c-105 -33 -200 -123 -224 -212 -16 -58 -7 -174 16 -222
25 -52 90 -114 150 -144 26 -13 109 -41 184 -63 161 -46 215 -74 230 -121 12
-34 2 -86 -20 -114 -56 -66 -216 -73 -313 -14 -40 25 -112 101 -127 135 l-11
24 -87 -40 c-47 -22 -88 -41 -89 -43 -10 -9 59 -116 104 -162 175 -177 518
-193 683 -31 118 116 121 307 5 421 -61 61 -118 89 -269 132 -149 43 -195 64
-224 101 -41 53 -16 135 52 167 42 20 137 22 190 3 52 -19 105 -61 136 -111
l27 -42 84 39 c46 21 85 40 88 42 9 9 -44 94 -89 141 -88 93 -198 135 -349
134 -55 0 -106 -7 -147 -20z"/>
<path d="M8452 2533 c18 -27 100 -145 183 -263 83 -118 154 -220 158 -227 5
-7 -67 -118 -183 -285 l-191 -273 133 -3 c122 -3 134 -1 146 16 7 11 64 94
126 185 l113 166 124 -184 124 -184 133 -1 c72 0 132 2 132 4 0 3 -85 127
-190 277 l-189 272 18 26 c10 14 95 135 190 269 94 133 171 245 171 247 0 3
-60 5 -132 5 l-133 0 -124 -181 c-68 -99 -127 -177 -131 -172 -4 4 -60 86
-125 181 l-117 172 -135 0 -134 0 33 -47z"/>
</g>
</svg>
